<?xml version="1.0" encoding="UTF-8" standalone="no"?>
<svg
   xmlns:dc="http://purl.org/dc/elements/1.1/"
   xmlns:cc="http://creativecommons.org/ns#"
   xmlns:rdf="http://www.w3.org/1999/02/22-rdf-syntax-ns#"
   xmlns:svg="http://www.w3.org/2000/svg"
   xmlns="http://www.w3.org/2000/svg"
   xmlns:sodipodi="http://sodipodi.sourceforge.net/DTD/sodipodi-0.dtd"
   xmlns:inkscape="http://www.inkscape.org/namespaces/inkscape"
   viewBox="0 0 816 816"
   version="1.1"
   x="0px"
   y="0px"
   id="svg1273"
   sodipodi:docname="noun_Haircut_red.svg"
   width="8.5in"
   height="8.5in"
   inkscape:version="1.0.2 (e86c870879, 2021-01-15, custom)">
  <metadata
     id="metadata1279">
    <rdf:RDF>
      <cc:Work
         rdf:about="">
        <dc:format>image/svg+xml</dc:format>
        <dc:type
           rdf:resource="http://purl.org/dc/dcmitype/StillImage" />
        <dc:title>
tool-15 copy 4</dc:title>
      </cc:Work>
    </rdf:RDF>
  </metadata>
  <defs
     id="defs1277" />
  <sodipodi:namedview
     pagecolor="#ffffff"
     bordercolor="#666666"
     borderopacity="1"
     objecttolerance="10"
     gridtolerance="10"
     guidetolerance="10"
     inkscape:pageopacity="0"
     inkscape:pageshadow="2"
     inkscape:window-width="1920"
     inkscape:window-height="1001"
     id="namedview1275"
     showgrid="false"
     units="in"
     height="8.5in"
     inkscape:zoom="0.98161765"
     inkscape:cx="408"
     inkscape:cy="349.51654"
     inkscape:window-x="-9"
     inkscape:window-y="-9"
     inkscape:window-maximized="1"
     inkscape:current-layer="svg1273" />
  <title
     id="title1265">
tool-15 copy 4</title>
  <desc
     id="desc1267">
Created with Sketch.</desc>
  <g
     stroke="none"
     stroke-width="1"
     fill="none"
     fill-rule="evenodd"
     id="g1271"
     transform="matrix(8.0265943,0,0,8.0265943,5.4071084,141.23742)">
    <path
       d="m 97.782802,57.337565 c -1,0.75 -4.506,-1.5 -4.506,-1.5 l 1.506,12.25 -3.75,-0.75 c 0,0 -1.442,7.373 -1.888,14.804 -0.084,1.386 -1.948,1.755 -2.54,0.499 -1.537,-3.258 -3.204,-7.514 -3.072,-10.803 -0.5,0.5 -1.75,8 -1.75,8 0,0 -6,-5 -3.5,-14 2.5,-9 -3.75,-13 -3.75,-13 0,0 -4.602,4.25 -2.426,10.25 -0.291,0 -7.173,-6.856 -7.486,-12.419 -0.452,3.233 -0.939,10.418 6.662,19.919 -0.49,0.49 -19.887,-5.74 -20.232,-21.258 -0.292,2.633 -1.936,9.633 1.232,15.758 0,0.557 -11.012,-2.727 -13.207,-11.235 -0.157,4.817 0.563,10.33 3.707,14.485 0.25,0.25 -8.25,-1 -9.75,-7.75 0,0 -3.305,7.839 -11.75,11.75 0,0.4 0.16,5.758 -1.823,9.934 -0.714,1.503 -2.816,1.663 -3.767,0.298 -2.014,-2.894 -4.955,-8.549 -4.958,-18.482 0.548,0.5 -3.7019996,0 -3.7019996,0 v -6 l -4,0.25 c 0,0 -0.812,-10.584 5.644,-14.304 -1.686,0.447 -3.644,0.804 -3.644,0.804 0,0 0.018,-7.802 6.4119996,-10.427 -1.3,0.069 -3.6619996,-0.323 -3.6619996,-0.323 0,0 5.9999996,-15 25.4999996,-10.75 0.25,0.25 -3.778,-4.75 -10.389,-5 1.139,-0.5 14.639,-5 22.639,0 -0.25,0 12.5,-4.25 23.25,-0.75 -0.75,0.25 -2.25,1.75 -2.25,1.75 0,0 18.238,1.5 26.744,17.5 -0.494,-0.25 -5.744,-1.25 -6.744,-1.25 0.5,0.25 12,4.25 11.25,21.75"
       fill="#000000"
       id="path1269" />
  </g>
  <g
     id="g1811"
     transform="matrix(7.419327,-2.0936257,2.0936257,7.419327,-53.926967,26.951289)">
    <circle
       cx="30.823999"
       cy="61.061001"
       r="3.1530001"
       id="circle1419-98"
       style="fill:#ff0000" />
    <circle
       cx="70.143997"
       cy="48.688"
       r="3.1530001"
       id="circle1421-25"
       style="fill:#8800ff" />
    <circle
       cx="42.469002"
       cy="72.487"
       r="3.1530001"
       id="circle1423-9"
       style="fill:#8800ff" />
    <circle
       cx="49.133999"
       cy="27.023001"
       r="3.1530001"
       id="circle1425-1"
       style="fill:#ff0000" />
    <circle
       cx="49.134998"
       cy="58.148998"
       r="3.1530001"
       id="circle1427-6"
       style="fill:#0000ff" />
    <path
       d="m 71.487,62.293 c -1.188,-0.229 -2.328,0.555 -2.552,1.739 l -0.871,4.592 -5.991,-8.793 c -0.68,-0.996 -2.036,-1.255 -3.034,-0.575 -0.995,0.68 -1.254,2.037 -0.574,3.033 l 5.991,8.794 -4.593,-0.871 c -1.186,-0.226 -2.326,0.554 -2.551,1.737 -0.225,1.185 0.554,2.327 1.737,2.552 l 11.915,2.261 2.26,-11.916 c 0.225,-1.185 -0.553,-2.326 -1.737,-2.553 z"
       id="path1429-9"
       style="fill:#ff0000" />
    <path
       d="m 29.406,43.45 -1.705,-4.353 9.748,4.263 c 0.286,0.125 0.581,0.184 0.874,0.184 0.841,0 1.644,-0.49 2.001,-1.31 0.484,-1.105 -0.02,-2.392 -1.124,-2.875 l -9.749,-4.263 4.353,-1.703 c 1.122,-0.439 1.676,-1.706 1.236,-2.829 -0.439,-1.122 -1.703,-1.677 -2.829,-1.237 l -11.292,4.42 4.421,11.293 c 0.338,0.861 1.16,1.387 2.033,1.387 0.265,0 0.534,-0.049 0.796,-0.151 1.123,-0.437 1.676,-1.703 1.237,-2.826 z"
       id="path1431-2"
       style="fill:#8800ff" />
    <path
       d="m 65.271,40.099 c 0.439,0 0.886,-0.133 1.271,-0.41 l 8.641,-6.21 -0.756,4.612 c -0.195,1.19 0.611,2.312 1.801,2.507 0.119,0.02 0.238,0.029 0.356,0.029 1.051,0 1.976,-0.76 2.151,-1.83 L 80.695,26.829 68.728,24.87 c -1.191,-0.197 -2.312,0.611 -2.507,1.801 -0.194,1.19 0.61,2.312 1.802,2.507 l 4.612,0.755 -8.641,6.209 c -0.979,0.704 -1.203,2.068 -0.498,3.047 0.427,0.594 1.096,0.91 1.775,0.91 z"
       id="path1433-7"
       style="fill:#0000ff" />
    <circle
       cx="59.456001"
       cy="17.379"
       r="1.77"
       id="circle1435-0"
       style="fill:#8800ff" />
    <circle
       cx="19.054001"
       cy="54.995998"
       r="1.77"
       id="circle1437-6"
       style="fill:#0000ff" />
    <circle
       cx="9.7709999"
       cy="37.804001"
       r="1.77"
       id="circle1439-5"
       style="fill:#ff0000" />
    <circle
       cx="33.977001"
       cy="17.379"
       r="1.77"
       id="circle1441-5"
       style="fill:#0000ff" />
    <circle
       cx="52.289001"
       cy="83.232002"
       r="1.7690001"
       id="circle1443-6"
       style="fill:#8800ff" />
    <circle
       cx="82.023003"
       cy="56.765999"
       r="1.77"
       id="circle1445-1"
       style="fill:#0000ff" />
    <circle
       cx="17.284"
       cy="72.486"
       r="1.77"
       id="circle1447-67"
       style="fill:#8800ff" />
    <circle
       cx="90.068001"
       cy="38.59"
       r="1.77"
       id="circle1449-7"
       style="fill:#ff0000" />
  </g>
</svg>
